<?xml version="1.0" encoding="utf-8"?>
<!-- Generator: Adobe Illustrator 25.0.0, SVG Export Plug-In . SVG Version: 6.00 Build 0)  -->
<svg version="1.1" id="Layer_1" xmlns="http://www.w3.org/2000/svg" xmlns:xlink="http://www.w3.org/1999/xlink" x="0px" y="0px"
	 viewBox="0 0 25 25" style="enable-background:new 0 0 25 25;" xml:space="preserve">
<style type="text/css">
	.st0{fill:none;}
	.st1{fill:url(#SVGID_2_);}
	.st2{fill:url(#SVGID_3_);}
	.st3{fill:url(#SVGID_4_);}
	.st4{fill:url(#SVGID_5_);}
	.st5{fill:url(#SVGID_6_);}
</style>
<path id="SVGID_x5F_1_x5F_" class="st0" d="M0.13,14.64c2.02,5.8,7.36,9.56,13.05,9.19c6.17-0.39,11.03-5.79,11.63-10.91
	c0.1-0.88,0.07-1.63,0.01-2.17"/>
<text><textPath  xlink:href="#SVGID_x5F_1_x5F_" startOffset="9.1797%">
<tspan  style="fill:#2A4C33; font-family:'MyriadPro-Regular'; font-size:2.369px;">   HealthHub Clinic</tspan></textPath>
</text>
<g>
	<linearGradient id="SVGID_2_" gradientUnits="userSpaceOnUse" x1="8.6207" y1="3.3908" x2="7.5449" y2="6.444">
		<stop  offset="0.1684" style="stop-color:#088AC4"/>
		<stop  offset="0.2685" style="stop-color:#0592C9"/>
		<stop  offset="0.4497" style="stop-color:#009FD1"/>
		<stop  offset="0.5576" style="stop-color:#02A9BE"/>
		<stop  offset="0.6567" style="stop-color:#02B0AD"/>
		<stop  offset="0.7095" style="stop-color:#02B2A6"/>
		<stop  offset="0.8201" style="stop-color:#07B0A3"/>
		<stop  offset="0.86" style="stop-color:#14A99D"/>
		<stop  offset="0.8884" style="stop-color:#1F9F93"/>
		<stop  offset="0.9113" style="stop-color:#289186"/>
		<stop  offset="0.931" style="stop-color:#2D8076"/>
		<stop  offset="0.9484" style="stop-color:#2D6B63"/>
		<stop  offset="0.9642" style="stop-color:#2A544E"/>
		<stop  offset="0.9787" style="stop-color:#233B37"/>
		<stop  offset="0.9916" style="stop-color:#15201E"/>
		<stop  offset="1" style="stop-color:#010101"/>
	</linearGradient>
	<path class="st1" d="M8.48,5.4c0.96,0,1.74-0.72,1.74-1.6c0-0.88-0.78-1.6-1.74-1.6s-1.74,0.72-1.74,1.6
		C6.73,4.68,7.52,5.4,8.48,5.4z"/>
	<linearGradient id="SVGID_3_" gradientUnits="userSpaceOnUse" x1="5.1855" y1="6.4832" x2="17.392" y2="6.4832">
		<stop  offset="0" style="stop-color:#1DC2EA"/>
		<stop  offset="8.022580e-03" style="stop-color:#1DB4E1"/>
		<stop  offset="0.0217" style="stop-color:#15A3D7"/>
		<stop  offset="0.0373" style="stop-color:#1096CE"/>
		<stop  offset="0.0557" style="stop-color:#0E8CC7"/>
		<stop  offset="0.0783" style="stop-color:#0D85C3"/>
		<stop  offset="0.1101" style="stop-color:#0D81C0"/>
		<stop  offset="0.1983" style="stop-color:#0C80C0"/>
		<stop  offset="1" style="stop-color:#0CB3E1"/>
	</linearGradient>
	<path class="st2" d="M10.37,11.25c0.73-0.75,1.65-1.41,2.72-1.93c0.63-0.31,1.27-0.54,1.92-0.71c0.26-0.07,0.52-0.13,0.78-0.17
		l1.6-6.33l-4.46-0.96l-0.06,0.24l-1.12,4.4l-0.1,0.39c0.02-0.01-0.07,0.62-0.24,0.99c-0.01,0.02-0.02,0.05-0.03,0.07
		c-0.09,0.17-0.19,0.35-0.31,0.51c-0.71,1.03-1.93,1.97-3.49,2.54c-0.81,0.3-1.63,0.47-2.4,0.52l4.67,1
		C10.01,11.62,10.18,11.43,10.37,11.25z"/>
	<linearGradient id="SVGID_4_" gradientUnits="userSpaceOnUse" x1="1.4686" y1="8.698" x2="11.8745" y2="8.1543">
		<stop  offset="0" style="stop-color:#0CB3E1"/>
		<stop  offset="0.0938" style="stop-color:#0AA5D8"/>
		<stop  offset="0.2989" style="stop-color:#0E8BC7"/>
		<stop  offset="0.4251" style="stop-color:#0B8DC8"/>
		<stop  offset="0.7218" style="stop-color:#0C80C0"/>
		<stop  offset="0.8277" style="stop-color:#107FBD"/>
		<stop  offset="0.8659" style="stop-color:#197BB5"/>
		<stop  offset="0.8931" style="stop-color:#2275A9"/>
		<stop  offset="0.9151" style="stop-color:#296C99"/>
		<stop  offset="0.9339" style="stop-color:#2D6186"/>
		<stop  offset="0.9506" style="stop-color:#2D546F"/>
		<stop  offset="0.9657" style="stop-color:#2A4456"/>
		<stop  offset="0.9796" style="stop-color:#22313C"/>
		<stop  offset="0.9919" style="stop-color:#151C20"/>
		<stop  offset="1" style="stop-color:#010101"/>
	</linearGradient>
	<path class="st3" d="M11.08,7.76c0.12-0.17,0.22-0.34,0.31-0.51c0.01-0.02,0.02-0.04,0.03-0.07c0.17-0.37,0.26-1.01,0.24-0.99
		c-1,0.55-2.29,0.89-3.71,0.9c-0.04,0-0.09,0-0.13,0c-1.38,0-2.65-0.3-3.66-0.81L4,6.25l-1.04,4.1l2.22,0.48c0,0,0,0,0,0
		c0.78-0.06,1.59-0.22,2.4-0.52C9.15,9.73,10.37,8.79,11.08,7.76z"/>
	<linearGradient id="SVGID_5_" gradientUnits="userSpaceOnUse" x1="10.7968" y1="16.1948" x2="20.5802" y2="9.4932">
		<stop  offset="0" style="stop-color:#05B5A8"/>
		<stop  offset="0.1041" style="stop-color:#13B7AB"/>
		<stop  offset="0.4262" style="stop-color:#23BBB2"/>
		<stop  offset="0.6883" style="stop-color:#14B9B3"/>
		<stop  offset="0.7537" style="stop-color:#04B7B4"/>
		<stop  offset="0.8894" style="stop-color:#32BDB7"/>
		<stop  offset="1" style="stop-color:#32BDB7"/>
	</linearGradient>
	<path class="st4" d="M14.43,13.33c0.01-0.02,0.02-0.05,0.03-0.07c0.09-0.17,0.19-0.35,0.31-0.51c0.71-1.03,1.93-1.97,3.49-2.54
		c0.81-0.3,1.63-0.47,2.4-0.52l-4.67-1c-0.16,0.2-0.33,0.39-0.51,0.57c-0.73,0.75-1.65,1.42-2.72,1.93
		c-0.63,0.31-1.27,0.54-1.92,0.71c-0.26,0.07-0.52,0.13-0.78,0.17l-1.6,6.33l4.46,0.96l0.06-0.24l1.12-4.4l0.1-0.39
		C14.17,14.33,14.27,13.7,14.43,13.33z"/>
	<linearGradient id="SVGID_6_" gradientUnits="userSpaceOnUse" x1="18.2735" y1="14.628" x2="19.1588" y2="6.6061">
		<stop  offset="0" style="stop-color:#010101"/>
		<stop  offset="0.0124" style="stop-color:#0F1716"/>
		<stop  offset="0.0397" style="stop-color:#1E312E"/>
		<stop  offset="0.0704" style="stop-color:#264542"/>
		<stop  offset="0.1038" style="stop-color:#295853"/>
		<stop  offset="0.1407" style="stop-color:#286963"/>
		<stop  offset="0.1823" style="stop-color:#24766F"/>
		<stop  offset="0.231" style="stop-color:#1D8179"/>
		<stop  offset="0.2911" style="stop-color:#148880"/>
		<stop  offset="0.3755" style="stop-color:#0A8D85"/>
		<stop  offset="0.6098" style="stop-color:#068E86"/>
		<stop  offset="0.6357" style="stop-color:#069188"/>
		<stop  offset="0.8731" style="stop-color:#03A89D"/>
		<stop  offset="1" style="stop-color:#02B2A6"/>
	</linearGradient>
	<path class="st5" d="M20.66,9.69C20.66,9.69,20.66,9.69,20.66,9.69c-0.78,0.06-1.6,0.22-2.4,0.52c-1.56,0.57-2.79,1.5-3.49,2.54
		c-0.12,0.17-0.22,0.34-0.31,0.51c-0.01,0.02-0.02,0.04-0.03,0.07c-0.17,0.38-0.26,1.01-0.24,0.99c1-0.55,2.29-0.89,3.71-0.9
		c0.04,0,0.09,0,0.13,0c1.38,0,2.65,0.3,3.66,0.81l0.15,0.03l1.04-4.1L20.66,9.69z"/>
</g>
</svg>
